<svg x="0" y="0" width="48" height="48" version="1.1" xmlns="http://www.w3.org/2000/svg" xmlns:xlink="http://www.w3.org/1999/xlink"><defs><linearGradient x1="11.68966" y1="11.68966" x2="59.29131" y2="59.2913" gradientUnits="userSpaceOnUse" id="color-1"><stop offset="0.11" stop-color="#000000" stop-opacity="0.74"></stop><stop offset="1" stop-color="#000000" stop-opacity="0"></stop></linearGradient><filter id="dropshadow"><feColorMatrix type="matrix" values="0 0 0 0 .05  0 0 0 0 .15  0 0 0 0 .1  0 0 0 .8 0"></feColorMatrix> <feOffset dx="0" dy="1"></feOffset> <feGaussianBlur stdDeviation="1"></feGaussianBlur> <feComposite in="SourceGraphic"></feComposite></filter></defs><g fill="none" stroke="none" stroke-width="none" stroke-linecap="butt" stroke-linejoin="miter" stroke-miterlimit="none" stroke-dasharray="" stroke-dashoffset="0" font-family="none" font-weight="normal" font-size="none" text-anchor="start" mix-blend-mode="normal"><g fill="#000000" stroke="none" stroke-width="1" stroke-miterlimit="4" font-family="&quot;Open Sans&quot;, sans-serif" font-size="14"></g><path d="M3,24c0,-11.59798 9.40202,-21 21,-21c11.59798,0 21,9.40202 21,21c0,11.59798 -9.40202,21 -21,21c-11.59798,0 -21,-9.40202 -21,-21z" fill="#ffa800" stroke-width="1" stroke-miterlimit="10" font-family="sans-serif" font-size="12" filter="url(#dropshadow)"></path><path d="M33.20433,15.36498l11.58947,11.58947c-0.73336,5.20845 -3.37741,9.80336 -7.20049,13.05305l-0.44028,-0.44028c0,0 0,0 0,0.00001l0.44028,0.44028c-2.8628,2.43343 -6.38672,4.11256 -10.26453,4.73014l-12.03321,-12.03321c-2.22783,-2.22782 -3.6059,-5.30541 -3.6059,-8.70443c0,-6.79804 5.5123,-12.31034 12.31034,-12.31034c3.66108,0 6.94925,1.42024 9.20433,3.67532z" fill="url(#color-1)" stroke-width="1" stroke-miterlimit="10" font-family="sans-serif" font-size="12"></path><path d="M36.31034,22.63218c0,3.77517 -3.06391,6.83908 -6.83908,6.83908l-2.41419,0c-1.13529,0 -2.05172,0.91644 -2.05172,2.05172c0,0.52661 0.19149,0.99851 0.51293,1.36098c0.33511,0.36247 0.53345,0.84121 0.53345,1.37465c0,1.13529 -0.91644,2.05172 -2.05172,2.05172c-6.79804,0 -12.31034,-5.5123 -12.31034,-12.31034c0,-6.79804 5.5123,-12.31034 12.31034,-12.31034c6.79804,0 12.31034,4.89678 12.31034,10.94252z M18.52874,21.94828c0,-1.13529 -0.91644,-2.05172 -2.05172,-2.05172c-1.13529,0 -2.05172,0.91644 -2.05172,2.05172c0,1.13529 0.91644,2.05172 2.05172,2.05172c1.13529,0 2.05172,-0.91644 2.05172,-2.05172z M22.63218,16.47702c0,-1.13529 -0.91644,-2.05172 -2.05172,-2.05172c-1.13529,0 -2.05172,0.91644 -2.05172,2.05172c0,1.13529 0.91644,2.05172 2.05172,2.05172c1.13529,0 2.05172,-0.91644 2.05172,-2.05172z M29.47126,16.47702c0,-1.13529 -0.91644,-2.05172 -2.05172,-2.05172c-1.13529,0 -2.05172,0.91644 -2.05172,2.05172c0,1.13529 0.91644,2.05172 2.05172,2.05172c1.13529,0 2.05172,-0.91644 2.05172,-2.05172z M33.57471,21.94828c0,-1.13529 -0.91644,-2.05172 -2.05172,-2.05172c-1.13529,0 -2.05172,0.91644 -2.05172,2.05172c0,1.13529 0.91644,2.05172 2.05172,2.05172c1.13529,0 2.05172,-0.91644 2.05172,-2.05172z" fill="#ecf0f1" stroke="none" stroke-width="0" stroke-miterlimit="4" font-family="&quot;Open Sans&quot;, sans-serif" font-size="14"></path></g></svg>